<?xml version="1.0" encoding="UTF-8" standalone="no"?>
<!-- Created with Inkscape (http://www.inkscape.org/) -->

<svg
   version="1.1"
   id="svg2"
   width="5333.3335"
   height="5333.3335"
   viewBox="0 0 5333.3335 5333.3335"
   sodipodi:docname="vecteezy_wind-leaf-flying-empty-state-single-isolated-icon-with_11537813.eps"
   xmlns:inkscape="http://www.inkscape.org/namespaces/inkscape"
   xmlns:sodipodi="http://sodipodi.sourceforge.net/DTD/sodipodi-0.dtd"
   xmlns="http://www.w3.org/2000/svg"
   xmlns:svg="http://www.w3.org/2000/svg">
  <defs
     id="defs6" />
  <sodipodi:namedview
     id="namedview4"
     pagecolor="#ffffff"
     bordercolor="#000000"
     borderopacity="0.25"
     inkscape:showpageshadow="2"
     inkscape:pageopacity="0.0"
     inkscape:pagecheckerboard="0"
     inkscape:deskcolor="#d1d1d1" />
  <g
     id="g8"
     inkscape:groupmode="layer"
     inkscape:label="ink_ext_XXXXXX"
     transform="matrix(1.3333333,0,0,-1.3333333,0,5333.3333)">
    <g
       id="g10"
       transform="scale(0.1)">
      <path
         d="M 40000,0 H 0 V 40000 H 40000 V 0"
         style="fill:#ffffff;fill-opacity:1;fill-rule:nonzero;stroke:none"
         id="path12" />
      <path
         d="m 3163.13,18506.9 c 3193.12,1388.7 3673.12,3163.7 3604.37,4326.8 -9.37,1359.4 -1126.25,2469.4 -2499.37,2469.4 -1244.38,0 -2277.5,-911.2 -2468.75,-2101.9 -54.38,-340.6 177.5,-661.8 518.12,-716.2 340.63,-55 661.88,177.5 716.25,518.1 95.63,595 612.5,1050 1234.38,1050 690,0 1250,-560 1250,-1250 0,-12.5 0.62,-25.6 1.25,-38.1 53.12,-871.2 -456.88,-2068.8 -2854.38,-3111.9 -316.87,-137.5 -461.87,-506.2 -324.37,-822.5 138.12,-316.2 506.25,-461.2 822.5,-323.7"
         style="fill:#2d74ff;fill-opacity:1;fill-rule:evenodd;stroke:none"
         id="path14" />
      <path
         d="m 3139.38,18497.5 c 4748.12,1836.9 7577.52,3635.6 12908.12,3707.5 345,5 621.3,288.7 616.3,633.7 -4.4,344.4 -288.2,620.7 -633.2,616.3 -5505.6,-74.4 -8438.72,-1894.4 -13341.85,-3791.9 -321.87,-124.3 -481.87,-486.9 -357.5,-808.7 124.38,-321.3 486.88,-481.9 808.13,-356.9"
         style="fill:#2d74ff;fill-opacity:1;fill-rule:evenodd;stroke:none"
         id="path16" />
      <path
         d="m 3268.13,14815 c 5131.25,3523.7 8033.77,4770 18403.17,4890 11194.3,130 12878.1,5786.2 12783.1,8112.5 -6.9,2233.1 -1824.4,4046.3 -4061.9,4046.3 -2242.5,0 -4062.5,-1820.7 -4062.5,-4062.6 0,-1538.7 856.9,-2879.3 2120,-3568.1 302.5,-165.6 682.5,-53.7 848.1,249.4 165,302.5 53.2,682.5 -249.3,847.5 -874.4,477.5 -1468.8,1405.6 -1468.8,2471.2 0,1552.5 1260,2812.6 2812.5,2812.6 1551.9,0 2812.5,-1260.1 2812.5,-2812.6 0,-8.7 0,-18.1 0.6,-26.8 C 33294.4,25720 31585,21070 21656.9,20955 10891.9,20830 7887.5,19503.7 2560,15845 c -284.37,-195 -356.25,-584.4 -161.25,-868.7 195.63,-284.4 585,-356.9 869.38,-161.3"
         style="fill:#2d74ff;fill-opacity:1;fill-rule:evenodd;stroke:none"
         id="path18" />
      <path
         d="m 14540.6,14831.2 c 1710.7,1291.3 5136.9,1551.9 7598.2,671.9 1501.2,-536.9 2660,-1510.6 2654.3,-3051.9 0,-1.2 0,-1.8 0,-2.5 0,-1035 -840.6,-1875 -1875,-1875 -1035,0 -1875,840 -1875,1875 0,187.5 27.5,368.8 78.8,539.4 99.4,330.6 -88.8,679.4 -418.8,778.8 -330.6,99.3 -679.4,-88.2 -778.7,-418.8 -85.6,-285 -131.3,-586.9 -131.3,-899.4 0,-1725 1400,-3125 3125,-3125 1724.4,0 3124.4,1399.4 3125,3123.8 7.5,2088.7 -1448.7,3505 -3483.7,4232.5 -2843.8,1016.9 -6795.6,641.2 -8771.9,-851.3 -275.6,-207.5 -330,-600 -122.5,-875 208.1,-275.6 600.6,-330 875.6,-122.5"
         style="fill:#2d74ff;fill-opacity:1;fill-rule:evenodd;stroke:none"
         id="path20" />
      <path
         d="m 27321.3,17830.6 c 2731.8,142.5 5791.8,-885.6 6929.3,-2817.5 175,-297.5 558.2,-396.9 855.6,-221.9 296.9,175 396.3,558.8 221.3,855.7 -1333.1,2265.6 -4868.1,3599.3 -8071.2,3432.5 -344.4,-18.2 -609.4,-312.5 -591.3,-656.9 18.1,-344.4 311.9,-609.4 656.3,-591.9"
         style="fill:#2d74ff;fill-opacity:1;fill-rule:evenodd;stroke:none"
         id="path22" />
      <path
         d="m 11324.4,27535.6 c -975.6,-308.1 -2040.65,-501.9 -2902.52,-456.2 -172.5,9.3 -305,156.2 -295.63,328.7 8.75,171.9 156.25,304.4 328.13,295.6 1101.87,-58.1 2565.62,298.2 3665.02,786.3 86.9,38.7 151.9,114.4 175.6,206.2 24.4,91.9 5.6,189.4 -51.2,265.7 -1504.4,2025 -242.5,5262.5 3613.7,6680.6 2463.7,906.3 3801.3,1825.6 4477.5,2588.8 13.7,15 25.6,31.2 35.6,48.1 54.4,91.9 155,146.2 261.3,141.2 103.1,-5 195,-65 241.9,-156.8 1315,-3130.7 -135,-7376.3 -2500.7,-9545 -1521.2,-1395.1 -3438.7,-1919.4 -5236.2,-610.7 -139.4,101.3 -335,70.6 -436.3,-68.7 -101.8,-139.4 -71.2,-335 68.8,-436.9 2066.9,-1504.4 4276.9,-948.8 6026.2,655.6 2539.4,2328.2 4067.5,6895.7 2653.8,10250 -1.3,3.8 -3.1,6.9 -4.4,10.7 -143.1,306.8 -444.4,509.3 -782.5,526.2 -327.5,15.6 -637.5,-145 -813.1,-420 -641.9,-712.5 -1910,-1550.6 -4207.5,-2395.6 -4151.9,-1527.5 -5476.3,-5007.5 -4118.1,-7310.7 -961.9,-376.2 -2131.3,-638.7 -3036.3,-591.2 -516.87,27.5 -958.12,-370 -985.62,-886.9 -26.88,-516.9 370,-958.1 886.87,-985.6 927.5,-48.8 2074.35,153.1 3124.35,485 164.4,51.9 255.7,227.5 203.8,391.9 -51.9,164.3 -228.1,256.2 -392.5,203.7"
         style="fill:#738bab;fill-opacity:1;fill-rule:evenodd;stroke:none"
         id="path24" />
      <path
         d="M 5085.63,8981.9 C 4024.38,8461.2 2958.75,7738.1 2284.38,6989.4 c -346.25,-385 -315,-978.2 69.37,-1324.4 385,-346.3 978.13,-315 1324.38,70 606.25,673.7 1618.75,1315 2564.37,1728.7 668.75,-2588.1 4066.3,-4113.1 8081.2,-2257.4 2221.3,1026.2 3710.1,1331.2 4668.8,1281.2 319.4,-70 652.5,35 872.5,278.1 227.5,250.7 297.5,607.5 181.3,925.6 -1.3,3.2 -2.5,6.9 -4.4,10.7 C 18670,11073.1 14360,13222.5 10917.5,13073.1 8546.25,12970.6 6590.63,11800.6 6193.13,9275 c -26.88,-170 89.37,-330.6 260,-356.9 170,-26.8 330.62,89.4 357.5,260 345.62,2196.3 2071.87,3181.3 4134.37,3270.6 3205,139.4 7230.6,-1836.2 8514.4,-4972.4 35.6,-102.6 13.1,-212.6 -57.5,-290.7 -71.3,-78.7 -180.6,-111.9 -284.4,-85 -19.4,5 -38.8,8.1 -58.7,9.4 -1018.2,60.6 -2613.8,-235 -4996.9,-1336.3 -3730,-1723.7 -6911.27,-326.8 -7279.4,2168.8 -13.75,93.8 -69.37,176.3 -151.25,224.4 -81.87,47.5 -181.25,55.6 -270,21.2 -1123.12,-432.5 -2410,-1215.6 -3147.5,-2035 -115.62,-128.1 -313.12,-138.7 -441.87,-23.1 -128.13,115 -138.13,313.1 -23.13,441.2 628.13,697.5 1624.38,1364.4 2612.5,1849.4 154.38,75.7 218.75,263.1 142.5,418.1 -75.62,155 -263.12,218.8 -418.12,143.2"
         style="fill:#738bab;fill-opacity:1;fill-rule:evenodd;stroke:none"
         id="path26" />
      <path
         d="m 27131.9,9980 c 710,-86.2 1545.6,-393.8 2300.6,-783.1 -846.2,-1809.4 130,-4421.9 3189.4,-5798.2 1670.6,-751.2 2629.4,-1446.8 3139.4,-2031.8 168.7,-275.7 471.2,-441.9 795.6,-434.4 335,6.898 639.4,198.1 790.6,497.5 1.9,3.1 3.8,6.9 5.6,10.6 1241.9,2708.8 177.5,6513.2 -1808.1,8470.7 -1336.2,1316.8 -3070,1817.4 -4803.1,705.6 -1064.4,605 -2336.9,1096.8 -3383.2,1224.3 -171.2,21.3 -326.8,-101.2 -348.1,-272.5 -20.6,-171.2 101.3,-326.8 272.5,-347.5 1028.8,-125.6 2288.8,-635.6 3311.9,-1241.8 105.6,-62.5 238.1,-56.9 338.8,13.7 1502.5,1055 3013.7,615 4172.4,-526.9 1818.8,-1793.1 2815.7,-5271.8 1683.2,-7755.6 -49.4,-93.1 -143.1,-151.2 -246.3,-153.7 -104.4,-1.9 -201.8,53.7 -253.7,145 -10,17.5 -21.3,34.3 -35,49.3 -541.3,632.5 -1562.5,1401.9 -3376.3,2217.5 -2790,1255.1 -3709.4,3630 -2755.6,5193.8 44.4,72.5 56.9,160 35,242.5 -21.2,81.9 -75.6,151.9 -150,193.1 -894.4,496.3 -1934.4,896.9 -2800,1002.5 -171.2,20.6 -326.9,-101.2 -347.5,-272.5 -21.2,-171.2 101.3,-326.9 271.9,-348.1"
         style="fill:#738bab;fill-opacity:1;fill-rule:evenodd;stroke:none"
         id="path28" />
      <path
         d="m 13618.1,28896.9 c 1952.5,726.9 4952.5,3493.7 5996.9,5763.7 72.5,156.9 3.7,342.5 -153.1,415 -156.9,71.9 -342.5,3.2 -414.4,-153.7 -984.4,-2140 -3806.9,-4754.4 -5647.5,-5439.4 -161.3,-60 -243.8,-240 -183.7,-401.9 60,-161.2 240,-243.7 401.8,-183.7"
         style="fill:#738bab;fill-opacity:1;fill-rule:evenodd;stroke:none"
         id="path30" />
      <path
         d="m 8318.75,8453.7 c 706.25,353.2 1804.35,466.3 3049.35,437.6 1933.8,-45.7 4212.5,-449.4 5988.8,-946.3 166.2,-46.3 338.7,51.2 385.6,216.9 46.3,166.2 -51.2,338.7 -216.9,385 -1822.5,509.4 -4159.3,922.5 -6142.5,968.7 -1366.2,32.5 -2568.72,-115 -3344.35,-502.5 -153.75,-77.5 -216.87,-265 -139.37,-419.4 76.87,-154.3 265,-216.8 419.37,-140"
         style="fill:#738bab;fill-opacity:1;fill-rule:evenodd;stroke:none"
         id="path32" />
      <path
         d="m 31340.6,8921.9 c 1705,-758.8 3780.7,-3241.3 4590.7,-6011.9 48.1,-165.6 221.8,-261.3 387.5,-212.5 165.6,48.1 260.6,221.9 211.8,387.5 -865.6,2963.1 -3112.5,5596.9 -4936.2,6408.1 -157.5,70 -342.5,-0.6 -412.5,-158.1 -70,-158.1 0.6,-342.5 158.7,-413.1"
         style="fill:#738bab;fill-opacity:1;fill-rule:evenodd;stroke:none"
         id="path34" />
    </g>
  </g>
</svg>
